/* XPM */
static const char* smile_2_xpm[] = {
"32 32 444 2",
"  	c None",
". 	c #3A3F4D",
"+ 	c #363A4C",
"@ 	c #000028",
"# 	c #4B4F5C",
"$ 	c #00002C",
"% 	c #2A3347",
"& 	c #404350",
"* 	c #363945",
"= 	c #1E293F",
"- 	c #2F2D2C",
"; 	c #66571D",
"> 	c #8D7715",
", 	c #A68B17",
"' 	c #B19400",
") 	c #B09300",
"! 	c #A48916",
"~ 	c #8B7417",
"{ 	c #615220",
"] 	c #24262A",
"^ 	c #13223B",
"/ 	c #001532",
"( 	c #554A22",
"_ 	c #A88D11",
": 	c #D9B60B",
"< 	c #EEC805",
"[ 	c #F5CD03",
"} 	c #F7CF03",
"| 	c #F6CE03",
"1 	c #F7CE02",
"2 	c #F4CC04",
"3 	c #EDC606",
"4 	c #D5B30B",
"5 	c #A18714",
"6 	c #493F20",
"7 	c #18233A",
"8 	c #3A3C4A",
"9 	c #332F22",
"0 	c #AA8F13",
"a 	c #E8C307",
"b 	c #F3CC04",
"c 	c #F3CB04",
"d 	c #F2CB04",
"e 	c #E3C008",
"f 	c #9E8514",
"g 	c #232225",
"h 	c #353843",
"i 	c #0E1C36",
"j 	c #63541E",
"k 	c #D6B40C",
"l 	c #F8CF03",
"m 	c #F4CC03",
"n 	c #F6CF03",
"o 	c #F6CE05",
"p 	c #CDAC0D",
"q 	c #51441C",
"r 	c #3E414D",
"s 	c #746118",
"t 	c #E6C108",
"u 	c #FAD102",
"v 	c #EFC706",
"w 	c #E1BC0B",
"x 	c #E7C208",
"y 	c #F5CD04",
"z 	c #F4CD04",
"A 	c #E5C10A",
"B 	c #E1BD0C",
"C 	c #F0CA05",
"D 	c #FAD103",
"E 	c #DEBA0B",
"F 	c #5F5019",
"G 	c #3F424C",
"H 	c #2D3141",
"I 	c #67571E",
"J 	c #E7C109",
"K 	c #F8D003",
"L 	c #D1AF10",
"M 	c #64551D",
"N 	c #151821",
"O 	c #3C341F",
"P 	c #B29616",
"Q 	c #F0C905",
"R 	c #A58B18",
"S 	c #322D20",
"T 	c #1C1A20",
"U 	c #73601E",
"V 	c #D9B60E",
"W 	c #F8D103",
"X 	c #DFBA09",
"Y 	c #52441C",
"Z 	c #343642",
"` 	c #515256",
" .	c #3C3525",
"..	c #DAB60B",
"+.	c #E4C00A",
"@.	c #433A20",
"#.	c #806C1B",
"$.	c #CDAD11",
"%.	c #A68C18",
"&.	c #000022",
"*.	c #D7B40F",
"=.	c #F5CE03",
"-.	c #CAA912",
";.	c #000021",
">.	c #B29516",
",.	c #CAAA12",
"'.	c #6E5D1D",
").	c #5E501E",
"!.	c #ECC507",
"~.	c #CDAD0E",
"{.	c #242325",
"].	c #132036",
"^.	c #B29610",
"/.	c #F7CF05",
"(.	c #F6CE04",
"_.	c #D1AF11",
":.	c #000020",
"<.	c #DEBB0B",
"[.	c #FAD003",
"}.	c #F1CA06",
"|.	c #B99B15",
"1.	c #E5C00A",
"2.	c #BD9F14",
"3.	c #F4CC05",
"4.	c #D3B011",
"5.	c #DCB80E",
"6.	c #9F8612",
"7.	c #121F37",
"8.	c #3B3E49",
"9.	c #62531D",
"0.	c #ECC606",
"a.	c #EBC509",
"b.	c #CAAA11",
"c.	c #EFC806",
"d.	c #F2CC04",
"e.	c #F3CC03",
"f.	c #ECC508",
"g.	c #CAAB11",
"h.	c #F2CB05",
"i.	c #F4CD03",
"j.	c #E4C009",
"k.	c #4C4020",
"l.	c #001332",
"m.	c #B59812",
"n.	c #F7CF02",
"o.	c #F3CB05",
"p.	c #F7CD04",
"q.	c #F7CE04",
"r.	c #F3CC05",
"s.	c #A28813",
"t.	c #0E1F3A",
"u.	c #423A28",
"v.	c #E2BD09",
"w.	c #F6CD03",
"x.	c #D7B40C",
"y.	c #252528",
"z.	c #3E4250",
"A.	c #796619",
"B.	c #F2CA05",
"C.	c #EDC706",
"D.	c #645320",
"E.	c #3A3F4C",
"F.	c #16243E",
"G.	c #A08713",
"H.	c #F6CE02",
"I.	c #8D7617",
"J.	c #212D45",
"K.	c #333A4C",
"L.	c #B99B01",
"M.	c #D2B111",
"N.	c #B29608",
"O.	c #B29500",
"P.	c #B59810",
"Q.	c #B49706",
"R.	c #B29400",
"S.	c #B39600",
"T.	c #B59816",
"U.	c #B39500",
"V.	c #B49701",
"W.	c #B59813",
"X.	c #B49703",
"Y.	c #B49600",
"Z.	c #B59814",
"`.	c #B3960B",
" +	c #D9B60F",
".+	c #A58B13",
"++	c #001938",
"@+	c #0F1B32",
"#+	c #C4A40C",
"$+	c #806A13",
"%+	c #0B2748",
"&+	c #5C6069",
"*+	c #0A1B35",
"=+	c #303646",
"-+	c #5E616A",
";+	c #4A4E59",
">+	c #51555F",
",+	c #383E4C",
"'+	c #000C2F",
")+	c #595D66",
"!+	c #5A5E67",
"~+	c #001231",
"{+	c #353B4A",
"]+	c #5E626B",
"^+	c #3E4350",
"/+	c #00002A",
"(+	c #585C65",
"_+	c #001141",
":+	c #957C10",
"<+	c #F6CF02",
"[+	c #4B535B",
"}+	c #09162E",
"|+	c #C4A50E",
"1+	c #836B00",
"2+	c #8E9194",
"3+	c #EFF1F0",
"4+	c #6E6D6E",
"5+	c #9B9C9C",
"6+	c #F3F6F5",
"7+	c #CCCCCC",
"8+	c #221E1F",
"9+	c #DADBDA",
"0+	c #F3F5F4",
"a+	c #AAABAB",
"b+	c #595858",
"c+	c #E9EBEA",
"d+	c #EBEDEC",
"e+	c #616061",
"f+	c #A5A5A5",
"g+	c #F5F7F6",
"h+	c #B4B5B5",
"i+	c #4B494A",
"j+	c #E7E8E7",
"k+	c #7B7D84",
"l+	c #997E00",
"m+	c #495058",
"n+	c #343945",
"o+	c #BB9D04",
"p+	c #9E8300",
"q+	c #71747C",
"r+	c #F0F3F3",
"s+	c #717070",
"t+	c #9F9F9F",
"u+	c #F9FBFA",
"v+	c #CFD0D0",
"w+	c #221C1E",
"x+	c #DFE0DF",
"y+	c #F8FBFA",
"z+	c #AEAEAE",
"A+	c #5B5A5A",
"B+	c #EFF0EF",
"C+	c #F0F2F1",
"D+	c #636262",
"E+	c #A8A9A8",
"F+	c #FAFCFB",
"G+	c #B9B8B8",
"H+	c #4F4D4E",
"I+	c #E6E7E6",
"J+	c #5B5F69",
"K+	c #A88D14",
"L+	c #000B34",
"M+	c #283245",
"N+	c #A58B11",
"O+	c #C5A500",
"P+	c #2A3242",
"Q+	c #E0E2E2",
"R+	c #757575",
"S+	c #F8FAF9",
"T+	c #CED0CF",
"U+	c #DEDFDE",
"V+	c #5B595A",
"W+	c #EEEFEE",
"X+	c #A7A8A7",
"Y+	c #B8B8B8",
"Z+	c #575556",
"`+	c #22232D",
" @	c #D3B103",
".@	c #917917",
"+@	c #272F45",
"@@	c #252E43",
"#@	c #806C1A",
"$@	c #F4CB05",
"%@	c #423100",
"&@	c #B0B2B3",
"*@	c #7A7A79",
"=@	c #555354",
"-@	c #909094",
";@	c #5F4F00",
">@	c #F4CB04",
",@	c #695A1E",
"'@	c #3E424F",
")@	c #493F23",
"!@	c #E5C009",
"~@	c #A98C00",
"{@	c #3F4654",
"]@	c #A1A1A1",
"^@	c #BABABA",
"/@	c #000000",
"(@	c #00002D",
"_@	c #B99C11",
":@	c #DBB80A",
"<@	c #332E2A",
"[@	c #001230",
"}@	c #BE9F10",
"|@	c #E9C30A",
"1@	c #5F5011",
"2@	c #A6A6A6",
"3@	c #CECFCF",
"4@	c #DEDFDF",
"5@	c #FBFDFC",
"6@	c #BDBDBD",
"7@	c #766418",
"8@	c #EEC808",
"9@	c #AC9012",
"0@	c #071C37",
"a@	c #303546",
"b@	c #6F5F1D",
"c@	c #EFC905",
"d@	c #D5B20E",
"e@	c #241500",
"f@	c #7C7E81",
"g@	c #F0F1F0",
"h@	c #D3D4D4",
"i@	c #211B1D",
"j@	c #626161",
"k@	c #ACADAD",
"l@	c #ECECEC",
"m@	c #787A7F",
"n@	c #473800",
"o@	c #DEBB0C",
"p@	c #EAC407",
"q@	c #594C21",
"r@	c #434650",
"s@	c #0B182F",
"t@	c #BEA010",
"u@	c #F7CE03",
"v@	c #CFAD11",
"w@	c #3B2E00",
"x@	c #72747B",
"y@	c #ACACAD",
"z@	c #322F2F",
"A@	c #E1E2E2",
"B@	c #AFB0B0",
"C@	c #5C5B5B",
"D@	c #F1F3F2",
"E@	c #6C6B6B",
"F@	c #7B7B7C",
"G@	c #62646E",
"H@	c #4E3E00",
"I@	c #D9B510",
"J@	c #AD910E",
"K@	c #162038",
"L@	c #3D3F48",
"M@	c #504420",
"N@	c #E3BE0A",
"O@	c #DEBB0D",
"P@	c #7E6A00",
"Q@	c #000026",
"R@	c #ACADAE",
"S@	c #D9DBDA",
"T@	c #A09F9F",
"U@	c #535354",
"V@	c #CED0D0",
"W@	c #B1B3B4",
"X@	c #323847",
"Y@	c #8B7500",
"Z@	c #E4BF0C",
"`@	c #D8B50B",
" #	c #393425",
".#	c #4A4B50",
"+#	c #21293D",
"@#	c #7C6817",
"##	c #F5CC05",
"$#	c #F2CA07",
"%#	c #CEAC0E",
"&#	c #917A19",
"*#	c #493800",
"=#	c #1D1611",
"-#	c #161A27",
";#	c #0A1022",
">#	c #1F1408",
",#	c #4E3A00",
"'#	c #967E10",
")#	c #D3B110",
"!#	c #F6CD05",
"~#	c #E8C208",
"{#	c #68571E",
"]#	c #2E3342",
"^#	c #252C3E",
"/#	c #897513",
"(#	c #E9C406",
"_#	c #DBB703",
":#	c #D2B007",
"<#	c #D3B10E",
"[#	c #DCB906",
"}#	c #EBC506",
"|#	c #E8C308",
"1#	c #77651B",
"2#	c #000B2F",
"3#	c #1C253C",
"4#	c #7C6816",
"5#	c #DBB80C",
"6#	c #6B5B1B",
"7#	c #00032C",
"8#	c #1C253A",
"9#	c #4F451F",
"0#	c #BFA10C",
"a#	c #F0C906",
"b#	c #F3CB06",
"c#	c #F7CF04",
"d#	c #EDC707",
"e#	c #B59911",
"f#	c #403820",
"g#	c #343946",
"h#	c #41434D",
"i#	c #1C2336",
"j#	c #725F19",
"k#	c #BFA10F",
"l#	c #E6C007",
"m#	c #E3BE09",
"n#	c #B99A0F",
"o#	c #67561C",
"p#	c #071432",
"q#	c #44444C",
"r#	c #3F434F",
"s#	c #0F1D34",
"t#	c #4B4124",
"u#	c #826E18",
"v#	c #A78D11",
"w#	c #BE9E06",
"x#	c #C6A711",
"y#	c #C6A611",
"z#	c #A48A12",
"A#	c #7D6A1B",
"B#	c #423B25",
"C#	c #313644",
"D#	c #393F4C",
"E#	c #1D293F",
"F#	c #2A3240",
"G#	c #00102A",
"H#	c #000F2A",
"I#	c #313542",
"J#	c #283144",
"K#	c #2B3347",
"                        . + @ # # $ % &                         ",
"                  * = - ; > , ' ) ! ~ { ] ^                     ",
"                / ( _ : < [ } | 1 | 2 3 4 5 6 7                 ",
"            8 9 0 a } [ b c d d d d d b [ | e f g h             ",
"          i j k l | m d d d d d d d d d d m n o p q r           ",
"        / s t u v w x y c d d d d d d c z A B C D E F G         ",
"      H I J K L M N O P d d d d d d c Q R S T U V W X Y Z       ",
"    `  ...K +.@.#.$.%.&.*.=.d d d d | -.;.>.,.'.).!.K ~.{.      ",
"    ].^./.(._.:.<.[.}.|.1.2 d d d d 2 <.2.3.D 4.;.5.[ (.6.7.    ",
"  8.9.0.b c a.b.c.c d.| e.d d d d d d b | d d.f.g.c.h.i.j.k.    ",
"  l.m.n.d h.o.p.c d d d d d d d d d d d d d d c q.r.h.d | s.t.  ",
"  u.v.i.d d d d d d d d d d d d d d d d d d d d d d d d w.x.y.  ",
"z.A.B.d d d d d d d d d d d d d d d d d d d d d d d d d b C.D.E.",
"F.G.| d d [ n | H.H.H.H.H.H.H.H.H.H.H.H.H.H.H.H.1 } z d d z I.J.",
"K.L.| d e.M.N.O.P.Q.R.S.T.U.R.V.W.U.O.m.X.R.Y.Z.U.`. +m h.| .+++",
"@+#+| d m $+%+&+*+=+-+;+;.>+-+,+'+)+!+~+{+]+^+/+(+_+:+w.c <+R.[+",
"}+|+H.d m 1+2+3+4+5+6+7+8+9+0+a+b+c+d+e+f+g+h+i+j+k+l+| d H.O.m+",
"n+o+| d n p+q+r+s+t+u+v+w+x+y+z+A+B+C+D+E+F+G+H+I+J+R.| d | K+L+",
"M+N+| h.| O+P+Q+R+t+S+T+w+U+S+z+V+W+3+D+X+u+Y+Z+v+`+ @[ d [ .@+@",
"@@#@$@d m x %@&@*@t+S+T+w+U+S+z+V+W+3+D+X+u+Y+=@-@;@C.b >@c.,@'@",
"  )@!@m d | ~@{@i+]@S+T+w+U+S+z+V+W+3+D+X+u+^@/@(@_@| d y :@<@  ",
"  [@}@<+d 2 |@1@/@2@u+3@w+4@S+z+V+W+3+D+X+5@6@/@7@8@b d } 9@0@  ",
"  a@b@c@b d (.d@e@f@g@h@i@U+S+z+A+W+3+j@k@l@m@n@o@w.d 2 p@q@r@  ",
"    s@t@u@d d | v@w@x@y@z@A@5@B@C@D@0+E@F@G@H@I@(.d h.q.J@K@    ",
"    L@M@N@[ h.h.(.O@P@/@Q@R@S@T@U@V@W@X@/@Y@Z@(.d d (.`@ #.#    ",
"      +#@#C.##d d y $#%#&#*#=#-#;#>#,#'#)#r.z d d !#~#{#]#      ",
"        ^#/#C.w.h.h.o.| y (#_#:#<#[#}#[ =.c d d | |#1#2#        ",
"          3#4#N@q.b d d d b [ =.=.[ b d d d 3./.5#6#7#          ",
"            8#9#0#a#| 2 b#d d d d d d c y c#d#e#f#g#            ",
"              h#i#j#k#l#r.H.n H.H.| | o.m#n#o#p#q#              ",
"                  r#s#t#u#v#w#x#y#o+z#A#B#K@C#                  ",
"                        D#E#F#G#H#I#J#K#                        "};
