/* XPM */
static const char* smile_1_xpm[] = {
"32 32 317 2",
"  	c None",
". 	c #464853",
"+ 	c #393E4E",
"@ 	c #000031",
"# 	c #000023",
"$ 	c #001035",
"% 	c #2D3447",
"& 	c #0C1F38",
"* 	c #26262A",
"= 	c #5F5121",
"- 	c #867218",
"; 	c #A08616",
"> 	c #AA8E15",
", 	c #A98D16",
"' 	c #9D8416",
") 	c #846F18",
"! 	c #5A4C20",
"~ 	c #242730",
"{ 	c #17243C",
"] 	c #011634",
"^ 	c #4D431F",
"/ 	c #A38814",
"( 	c #D6B30C",
"_ 	c #ECC605",
": 	c #F4CC03",
"< 	c #F6CE02",
"[ 	c #F6CE03",
"} 	c #F4CC04",
"| 	c #EBC506",
"1 	c #D2B00B",
"2 	c #9C8114",
"3 	c #433C26",
"4 	c #132139",
"5 	c #353845",
"6 	c #2F2B27",
"7 	c #A48A13",
"8 	c #E5C108",
"9 	c #F7CE04",
"0 	c #F5CE03",
"a 	c #F3CC04",
"b 	c #F2CB04",
"c 	c #F6CE04",
"d 	c #E1BD08",
"e 	c #9A8013",
"f 	c #22202A",
"g 	c #44444E",
"h 	c #232B3D",
"i 	c #5D4E1F",
"j 	c #D2B00C",
"k 	c #F4CD04",
"l 	c #F2CB05",
"m 	c #F3CB04",
"n 	c #F5CD04",
"o 	c #C9A90F",
"p 	c #493E1A",
"q 	c #434650",
"r 	c #1C243B",
"s 	c #6F5C1A",
"t 	c #E4BF09",
"u 	c #F7CF02",
"v 	c #DCB80A",
"w 	c #594D1C",
"x 	c #404250",
"y 	c #3A3D49",
"z 	c #62531E",
"A 	c #E4C009",
"B 	c #DBB90B",
"C 	c #4B3F18",
"D 	c #3C3F49",
"E 	c #4D4D54",
"F 	c #383326",
"G 	c #D8B50C",
"H 	c #F2CB03",
"I 	c #F7CE02",
"J 	c #F7CE03",
"K 	c #F4CD03",
"L 	c #F7CF03",
"M 	c #CBAA0F",
"N 	c #212228",
"O 	c #0E1B35",
"P 	c #AE9310",
"Q 	c #F6CF03",
"R 	c #D7B50F",
"S 	c #BD9F15",
"T 	c #E0BC0B",
"U 	c #DBB70C",
"V 	c #BC9E15",
"W 	c #DBB90C",
"X 	c #F5CD03",
"Y 	c #9C8214",
"Z 	c #1D273B",
"` 	c #454750",
" .	c #5F511E",
"..	c #D0AF11",
"+.	c #272421",
"@.	c #000021",
"#.	c #50461F",
"$.	c #E1BD0B",
"%.	c #D7B50D",
"&.	c #3B3221",
"*.	c #000022",
"=.	c #423920",
"-.	c #DBB80D",
";.	c #E3BE09",
">.	c #483D21",
",.	c #051B36",
"'.	c #B29610",
").	c #A48A18",
"!.	c #242021",
"~.	c #C1A213",
"{.	c #AF9415",
"].	c #252020",
"^.	c #B59816",
"/.	c #F6CF02",
"(.	c #9F8614",
"_.	c #18253D",
":.	c #3F3828",
"<.	c #E1BC09",
"[.	c #C9A912",
"}.	c #3A3220",
"|.	c #DCB80C",
"1.	c #D2B010",
"2.	c #181820",
"3.	c #242220",
"4.	c #D5B20E",
"5.	c #D5B20C",
"6.	c #25242A",
"7.	c #3F4451",
"8.	c #776419",
"9.	c #F2CA05",
"0.	c #CAAA11",
"a.	c #AB8F18",
"b.	c #D6B30E",
"c.	c #D0AE10",
"d.	c #AA8E17",
"e.	c #D1B00F",
"f.	c #EDC706",
"g.	c #605321",
"h.	c #172740",
"i.	c #A08613",
"j.	c #F5CE02",
"k.	c #8B7518",
"l.	c #2A3142",
"m.	c #373B4A",
"n.	c #B99A03",
"o.	c #A58A17",
"p.	c #00002B",
"q.	c #111A32",
"r.	c #C4A40D",
"s.	c #B19400",
"t.	c #444C57",
"u.	c #03162F",
"v.	c #C5A50F",
"w.	c #F5CC04",
"x.	c #B39500",
"y.	c #4B505B",
"z.	c #323849",
"A.	c #BC9E03",
"B.	c #F1CA05",
"C.	c #CDAD11",
"D.	c #C2A313",
"E.	c #AF9416",
"F.	c #A88D14",
"G.	c #000C34",
"H.	c #263047",
"I.	c #A78C0E",
"J.	c #6E5C1D",
"K.	c #8D771A",
"L.	c #72621C",
"M.	c #89721B",
"N.	c #F6CD04",
"O.	c #927A17",
"P.	c #1F2B42",
"Q.	c #1F2A40",
"R.	c #816E1A",
"S.	c #B29416",
"T.	c #383220",
"U.	c #E6C109",
"V.	c #DDB90B",
"W.	c #0A1220",
"X.	c #F3CC03",
"Y.	c #F0C806",
"Z.	c #6C5B1F",
"`.	c #3A3E4E",
" +	c #4C3F22",
".+	c #E6C008",
"++	c #E2BE0C",
"@+	c #282820",
"#+	c #F7CF04",
"$+	c #F3CB05",
"%+	c #977E18",
"&+	c #EAC408",
"*+	c #DCB909",
"=+	c #353029",
"-+	c #000E2D",
";+	c #C0A010",
">+	c #AD9117",
",+	c #D2B00F",
"'+	c #C5A512",
")+	c #AE9211",
"!+	c #102039",
"~+	c #3E434F",
"{+	c #746118",
"]+	c #F1C906",
"^+	c #F4CC05",
"/+	c #EFC807",
"(+	c #7D691C",
"_+	c #383320",
":+	c #D6B30D",
"<+	c #CBAA11",
"[+	c #011621",
"}+	c #917B1A",
"|+	c #EBC407",
"1+	c #5D4E1D",
"2+	c #4C4F57",
"3+	c #1C2334",
"4+	c #C2A30C",
"5+	c #F5CD05",
"6+	c #E8C309",
"7+	c #77641D",
"8+	c #0C1221",
"9+	c #B69915",
"0+	c #EDC709",
"a+	c #AB9017",
"b+	c #000020",
"c+	c #89741C",
"d+	c #EDC607",
"e+	c #B09410",
"f+	c #192338",
"g+	c #3B3D48",
"h+	c #54471F",
"i+	c #E5C00B",
"j+	c #ECC606",
"k+	c #9F8618",
"l+	c #584C1F",
"m+	c #AA8F17",
"n+	c #CFAE11",
"o+	c #DDB90C",
"p+	c #DBB80C",
"q+	c #CDAC11",
"r+	c #A48A19",
"s+	c #4B401F",
"t+	c #111520",
"u+	c #AC9117",
"v+	c #F0C906",
"w+	c #3C3422",
"x+	c #515157",
"y+	c #162239",
"z+	c #826C17",
"A+	c #EEC807",
"B+	c #D8B50D",
"C+	c #988019",
"D+	c #4F4220",
"E+	c #111621",
"F+	c #1A1A20",
"G+	c #171A20",
"H+	c #151920",
"I+	c #56491E",
"J+	c #A1871A",
"K+	c #EAC307",
"L+	c #6D5B1B",
"M+	c #383C49",
"N+	c #1C253B",
"O+	c #8F7813",
"P+	c #EBC607",
"Q+	c #DCB90C",
"R+	c #D3B10F",
"S+	c #D4B10E",
"T+	c #DEBA0B",
"U+	c #EBC408",
"V+	c #7F6A1B",
"W+	c #00002A",
"X+	c #172239",
"Y+	c #826E18",
"Z+	c #E5BF09",
"`+	c #F6CD03",
" @	c #DEBB0A",
".@	c #725F1A",
"+@	c #000028",
"@@	c #091B35",
"#@	c #57491E",
"$@	c #C5A40E",
"%@	c #EFC806",
"&@	c #BA9D11",
"*@	c #473D20",
"=@	c #272D3F",
"-@	c #343743",
";@	c #1B2030",
">@	c #7A6518",
",@	c #C4A40E",
"'@	c #E8C207",
")@	c #E5C00A",
"!@	c #BD9F10",
"~@	c #6D5C1D",
"{@	c #000F2C",
"]@	c #353942",
"^@	c #2E3444",
"/@	c #07152F",
"(@	c #534623",
"_@	c #8A7319",
":@	c #AD920B",
"<@	c #C2A309",
"[@	c #CAA910",
"}@	c #C1A109",
"|@	c #A98E11",
"1@	c #836E18",
"2@	c #4A3F23",
"3@	c #00142F",
"4@	c #363B47",
"5@	c #232E44",
"6@	c #2C3446",
"7@	c #1D2639",
"8@	c #000926",
"9@	c #000826",
"0@	c #1F293B",
"a@	c #10223C",
"b@	c #373E4E",
"                        . + @ # # $ %                           ",
"                    & * = - ; > , ' ) ! ~ {                     ",
"                ] ^ / ( _ : < < < [ } | 1 2 3 4                 ",
"            5 6 7 8 9 0 a b b b b b b a [ c d e f g             ",
"          h i j c k l b b b b b b b b b b m n n o p q           ",
"        r s t [ b b b b b b b b b b b b b b b b u v w x         ",
"      y z A c b b b b b b b b b b b b b b b b b b [ B C D       ",
"    E F G [ b H n I n b b b b b b b b b b n J K b b L M N       ",
"    O P Q l b : R S T } b b b b b b b b k U V W : b b X Y Z     ",
"  `  .| : b 0 ..+.@.#.$.n b b b b b b X %.&.*.=.-.X b K ;.>.    ",
"  ,.'.u b b < ).@.!.@.~.9 b b b b b b J {.*.].*.^./.b b c (._.  ",
"  :.<.K b b 0 [.@.*.}.|.K b b b b b b X 1.2.*.3.4.X b b X 5.6.  ",
"7.8.9.m b b b m 0.a.b.K b b b b b b b b } c.d.e.} b b b a f.g.x ",
"h.i.[ b b b b b X J X b b b b b b b b b l X [ j.b b b b b X k.l.",
"m.n.Q b b b b b b b b b b b b b b b b b b b b b b b b b b < o.p.",
"q.r.[ b b b b b b b b b b b b b b b b b b b b b b b b b b < s.t.",
"u.v.[ b b l n } b b b b b b b b b b b b b b b l : w.b b b < x.y.",
"z.A./.b b B.).C.n l b b b b b b b b b b b b b X D.E.} b b < F.G.",
"H.I.J b m l J.K.c b b b b b b b b b b b b b b m L.M.X b b N.O.P.",
"Q.R.a m b [ S.T.U.: b b b b b b b b b b b b X V.W.D.[ b X.Y.Z.`.",
"   +.+: b w.++@+a.#+l b b b b b b b b b b $+X %+^ &+} b n *+=+  ",
"  -+;+/.b b c >+@.,+u b b b b b b b b b m L '+@.S [ l b L )+!+  ",
"  ~+{+]+^+l a /+(+_+:+u } b b b b b b ^+J <+[+}+l a b ^+|+1+2+  ",
"    3+4+L b b 5+6+7+8+9+0+u [ X X < Q &+a+b+c+d+k b b 9 e+f+    ",
"    g+h+i+X b b X j+k+@.l+m+n+o+p+q+r+s+t+u+v+K b b [ U w+x+    ",
"      y+z+A+K b b } n B+C+D+E+F+G+H+I+J+V.c } b b X K+L+M+      ",
"        N+O+/+X b b b X 0 P+Q+R+S+T+f.j.X b b b [ U+V+W+        ",
"          X+Y+Z+u m b b b } `+[ [ X a b b b a u  @.@+@          ",
"            @@#@$@B.I : b b b b b b b b } 9 %@&@*@=@            ",
"              -@;@>@,@'@K Q Q [ [ < < a )@!@~@{@]@              ",
"                  ^@/@(@_@:@<@M [@}@|@1@2@3@4@                  ",
"                        5@6@7@8@9@0@a@b@                        "};
