/* XPM */
static const char* smile_4_xpm[] = {
"32 32 313 2",
"  	c None",
". 	c #383C49",
"+ 	c #1A283E",
"@ 	c #000332",
"# 	c #424552",
"$ 	c #454854",
"% 	c #000F36",
"& 	c #29354B",
"* 	c #373E4C",
"= 	c #3E414C",
"- 	c #021836",
"; 	c #363129",
"> 	c #6D5D1E",
", 	c #937C16",
"' 	c #AC9014",
") 	c #B79900",
"! 	c #B69800",
"~ 	c #AA8E13",
"{ 	c #917916",
"] 	c #68571D",
"^ 	c #302E2D",
"/ 	c #001836",
"( 	c #494950",
"_ 	c #132038",
": 	c #5C4F20",
"< 	c #AE9212",
"[ 	c #DDB90A",
"} 	c #F0C806",
"| 	c #F5CE03",
"1 	c #F6CF02",
"2 	c #F6CE02",
"3 	c #F5CD02",
"4 	c #EFC807",
"5 	c #D8B609",
"6 	c #A78C15",
"7 	c #504520",
"8 	c #061934",
"9 	c #2C3242",
"0 	c #3C3525",
"a 	c #AF930E",
"b 	c #EBC407",
"c 	c #F7CE03",
"d 	c #F5CD03",
"e 	c #F3CB04",
"f 	c #F2CB04",
"g 	c #F3CC04",
"h 	c #F5CD04",
"i 	c #F7CF03",
"j 	c #E6C208",
"k 	c #A38A12",
"l 	c #2E2B29",
"m 	c #343845",
"n 	c #00092F",
"o 	c #695A1D",
"p 	c #D9B60A",
"q 	c #F7CE04",
"r 	c #F4CC03",
"s 	c #F4CD04",
"t 	c #F6CE03",
"u 	c #D0B00C",
"v 	c #584A1B",
"w 	c #313645",
"x 	c #00022D",
"y 	c #78661A",
"z 	c #E8C307",
"A 	c #F3CB05",
"B 	c #F2CB05",
"C 	c #E1BD09",
"D 	c #675618",
"E 	c #323846",
"F 	c #383D4A",
"G 	c #6C5B1A",
"H 	c #E8C309",
"I 	c #F6CE05",
"J 	c #F6CD04",
"K 	c #F7CF04",
"L 	c #F2CA04",
"M 	c #E1BC0A",
"N 	c #58491E",
"O 	c #282D3D",
"P 	c #484951",
"Q 	c #403822",
"R 	c #DCB80C",
"S 	c #F4CC05",
"T 	c #D2B110",
"U 	c #B49616",
"V 	c #DBB80D",
"W 	c #F4CD03",
"X 	c #D6B30E",
"Y 	c #B39716",
"Z 	c #D8B50D",
"` 	c #F4CC04",
" .	c #D0AF0E",
"..	c #282624",
"+.	c #0A1A34",
"@.	c #B59810",
"#.	c #CDAD10",
"$.	c #0E1621",
"%.	c #000021",
"&.	c #463E1E",
"*.	c #DFBB0C",
"=.	c #F5CC03",
"-.	c #D5B30E",
";.	c #2B2820",
">.	c #000022",
",.	c #352E20",
"'.	c #D9B60D",
").	c #F6CE04",
"!.	c #A38916",
"~.	c #011732",
"{.	c #373B49",
"].	c #66561B",
"^.	c #EDC705",
"/.	c #A48917",
"(.	c #000023",
"_.	c #262021",
":.	c #C1A214",
"<.	c #B09415",
"[.	c #252121",
"}.	c #B59815",
"|.	c #E6C008",
"1.	c #4F4220",
"2.	c #1A273B",
"3.	c #B79A0D",
"4.	c #CDAB10",
"5.	c #0C1022",
"6.	c #453C20",
"7.	c #DEBA0B",
"8.	c #D4B20F",
"9.	c #2A2620",
"0.	c #332B20",
"a.	c #D7B50E",
"b.	c #A58914",
"c.	c #051C38",
"d.	c #443A26",
"e.	c #E3BD08",
"f.	c #D1B010",
"g.	c #B29616",
"h.	c #D5B30D",
"i.	c #B19515",
"j.	c #D6B40E",
"k.	c #D8B509",
"l.	c #302D2E",
"m.	c #373D4D",
"n.	c #7C6819",
"o.	c #EEC706",
"p.	c #64551E",
"q.	c #404450",
"r.	c #0D213C",
"s.	c #A28813",
"t.	c #8E7616",
"u.	c #333A4B",
"v.	c #323946",
"w.	c #BA9B03",
"x.	c #A58B13",
"y.	c #001435",
"z.	c #0C192E",
"A.	c #C4A40E",
"B.	c #F2CC05",
"C.	c #CBAC10",
"D.	c #A18718",
"E.	c #A48A17",
"F.	c #D2B010",
"G.	c #B29400",
"H.	c #4A5159",
"I.	c #0A1730",
"J.	c #C4A50E",
"K.	c #F1CA05",
"L.	c #9C8418",
"M.	c #050621",
"N.	c #AB9017",
"O.	c #4A5259",
"P.	c #2E3547",
"Q.	c #BB9D03",
"R.	c #B59915",
"S.	c #1E1B21",
"T.	c #231F20",
"U.	c #241F20",
"V.	c #1A1821",
"W.	c #C3A512",
"X.	c #001235",
"Y.	c #001939",
"Z.	c #A58A13",
"`.	c #EAC408",
" +	c #574A1F",
".+	c #070B21",
"++	c #705E1D",
"@+	c #EFC806",
"#+	c #F5CD05",
"$+	c #907817",
"%+	c #2B3349",
"&+	c #2C3346",
"*+	c #7F6B19",
"=+	c #D1AF0E",
"-+	c #000420",
";+	c #211D20",
">+	c #1D1B20",
",+	c #2A2421",
"'+	c #DCB90C",
")+	c #353A4A",
"!+	c #473E24",
"~+	c #E5BF08",
"{+	c #BFA115",
"]+	c #211E20",
"^+	c #CDAC10",
"/+	c #DAB70A",
"(+	c #312D2A",
"_+	c #051833",
":+	c #BC9E0F",
"<+	c #C0A114",
"[+	c #000020",
"}+	c #221D20",
"|+	c #000221",
"1+	c #CEAD11",
"2+	c #AA8E11",
"3+	c #17233C",
"4+	c #383B47",
"5+	c #D2B20F",
"6+	c #000E20",
"7+	c #201D20",
"8+	c #1C1A20",
"9+	c #2D2920",
"0+	c #DDBA0D",
"a+	c #E9C308",
"b+	c #564A20",
"c+	c #474852",
"d+	c #00092A",
"e+	c #BB9D12",
"f+	c #F3CC03",
"g+	c #ECC608",
"h+	c #61511E",
"i+	c #77651C",
"j+	c #F0C904",
"k+	c #AA8F15",
"l+	c #00032D",
"m+	c #4B4951",
"n+	c #493F1F",
"o+	c #E0BC0B",
"p+	c #BF9F14",
"q+	c #191720",
"r+	c #111220",
"s+	c #000220",
"t+	c #CBAB11",
"u+	c #D6B40D",
"v+	c #332E23",
"w+	c #182238",
"x+	c #776317",
"y+	c #ECC507",
"z+	c #AB9018",
"A+	c #181920",
"B+	c #2D2820",
"C+	c #B79A13",
"D+	c #E5C108",
"E+	c #62541E",
"F+	c #383B48",
"G+	c #1B263B",
"H+	c #847014",
"I+	c #EBC508",
"J+	c #F4CD06",
"K+	c #D6B50F",
"L+	c #B39615",
"M+	c #B69816",
"N+	c #E6C109",
"O+	c #72601A",
"P+	c #2D3242",
"Q+	c #756212",
"R+	c #F8CF04",
"S+	c #F6CF03",
"T+	c #D9B50B",
"U+	c #66561D",
"V+	c #001632",
"W+	c #2C3243",
"X+	c #493F21",
"Y+	c #BB9C11",
"Z+	c #EEC807",
"`+	c #F7CE02",
" @	c #EBC507",
".@	c #B09310",
"+@	c #3A3323",
"@@	c #2E3544",
"#@	c #494A50",
"$@	c #00072A",
"%@	c #6B5A1C",
"&@	c #BA9B0F",
"*@	c #E3BF08",
"=@	c #F2CA06",
"-@	c #DFBC08",
";@	c #B39610",
">@	c #5F501D",
",@	c #16213A",
"'@	c #54545B",
")@	c #292C3E",
"!@	c #0E1D36",
"~@	c #453C25",
"{@	c #7C681A",
"]@	c #A18813",
"^@	c #B89A01",
"/@	c #C1A20B",
"(@	c #C0A10A",
"_@	c #B69900",
":@	c #9E8414",
"<@	c #77641C",
"[@	c #3D3628",
"}@	c #001835",
"|@	c #40424E",
"1@	c #313949",
"2@	c #0C203C",
"3@	c #353B4A",
"4@	c #131D35",
"5@	c #151F36",
"6@	c #3B404E",
"7@	c #17263F",
"8@	c #1D293E",
"                        . + @ # $ % & *                         ",
"                  = - ; > , ' ) ! ~ { ] ^ /                     ",
"              ( _ : < [ } | 1 1 2 2 3 4 5 6 7 8                 ",
"            9 0 a b c d e f f f f f f g h i j k l m             ",
"          n o p q r f f f f f f f f f f f f s t u v w           ",
"        x y z q A B f f f f f f f f f f f f B f c C D E         ",
"      F G H I A t i h f f f f f f f f f f J K h L t M N O       ",
"    P Q R t B S T U V h f f f f f f f f W X Y Z ` f i  ...      ",
"    +.@.q B | #.$.%.&.*.=.f f f f f f d -.;.>.,.'.d B ).!.~.    ",
"  {.].^.` f 2 /.(._.%.:.c f f f f f f i <.>.[.>.}.1 B ` |.1.    ",
"  2.3.i f f | 4.5.%.6.7.s f f f f f f d 8.9.(.0.a.d f f t b.c.  ",
"  d.e.W f f f g f.g.V ` B f f f f f f e s h.i.j.` f f f | k.l.  ",
"m.n.f f f f f f | 1 W f f f f f f f f f f d 1 d f f f f g o.p.q.",
"r.s.c f f f f f f f f f f f f f f f f f f f f f f f f f f d t.u.",
"v.w.).f f f f f f f f f f f | 2 2 | f f f f f f f f f f f 2 x.y.",
"z.A.t f f f f f f f f f g B.C.D.E.F.S g f f f f f f f f f 1 G.H.",
"I.J.2 f f f f f f f f e K.L.%.%.%.M.N.S e f f f f f f f f 1 G.O.",
"P.Q.t f f f f f f f f ).R.%.S.T.U.V.%.W.t f f f f f f f B t 6 X.",
"Y.Z.c f f f f f f f g `. +.+T.T.T.T.%.++@+g f f f f f f e #+$+%+",
"&+*+e A f f f f f f | =+-+;+T.T.T.T.>+,+'+d f f f f f f e @+] )+",
"  !+~+W f f f f f f 2 {+%.T.T.T.T.T.]+%.^+| f f f f f f d /+(+  ",
"  _+:+i f f f f f f t <+[+T.T.T.T.T.}+|+1+t f f f f f f c 2+3+  ",
"  4+> @+g f f f f f | 5+6+7+T.T.T.T.8+9+0+W f f f f f r a+b+c+  ",
"    d+e+c f f f f f f+g+h+-+T.T.T.U.%.i+j+g f f f f f c k+l+    ",
"    m+n+o+| f f f f f ).p+%.q+T.T.r+s+t+t f f f f f t u+v+      ",
"      w+x+y+h f f f f e e z+A+[+>.B+C+` e f f f B | D+E+F+      ",
"        G+H+I+t f f f f g J+K+L+M+V h e f f f f t N+O++.        ",
"          P+Q+o+R+g f f f f d 1 S+d f f f f ` q T+U+V+          ",
"            W+X+Y+Z+`+W f f f f f B f e W i  @.@+@@@            ",
"              #@$@%@&@*@B t c 2 t t t =@-@;@>@,@'@              ",
"                  )@!@~@{@]@^@/@(@_@:@<@[@}@|@                  ",
"                        1@2@3@4@5@6@7@8@                        "};
