/* XPM */
static const char* smile_3_xpm[] = {
"32 32 324 2",
"  	c None",
". 	c #373E4C",
"+ 	c #29354B",
"@ 	c #000F36",
"# 	c #454854",
"$ 	c #424552",
"% 	c #000332",
"& 	c #1A283E",
"* 	c #383C49",
"= 	c #001836",
"- 	c #302E2D",
"; 	c #68571D",
"> 	c #917916",
", 	c #AA8E13",
"' 	c #B69800",
") 	c #B79900",
"! 	c #AC9014",
"~ 	c #937C16",
"{ 	c #6D5D1E",
"] 	c #363129",
"^ 	c #021836",
"/ 	c #3E414C",
"( 	c #061934",
"_ 	c #504520",
": 	c #A78C15",
"< 	c #D8B609",
"[ 	c #EFC807",
"} 	c #F5CD02",
"| 	c #F6CE02",
"1 	c #F6CF02",
"2 	c #F5CE03",
"3 	c #F0C806",
"4 	c #DDB90A",
"5 	c #AE9212",
"6 	c #5C4F20",
"7 	c #132038",
"8 	c #494950",
"9 	c #343845",
"0 	c #2E2B29",
"a 	c #A38A12",
"b 	c #E6C208",
"c 	c #F7CF03",
"d 	c #F5CD04",
"e 	c #F3CC04",
"f 	c #F2CB04",
"g 	c #F3CB04",
"h 	c #F5CD03",
"i 	c #F7CE03",
"j 	c #EBC407",
"k 	c #AF930E",
"l 	c #3C3525",
"m 	c #2C3242",
"n 	c #303645",
"o 	c #584A1B",
"p 	c #D0B00C",
"q 	c #F6CE03",
"r 	c #F4CD04",
"s 	c #F4CC03",
"t 	c #F7CE04",
"u 	c #D9B60A",
"v 	c #695A1D",
"w 	c #00092F",
"x 	c #323746",
"y 	c #675618",
"z 	c #E1BD09",
"A 	c #F8CE03",
"B 	c #F2CB05",
"C 	c #E8C307",
"D 	c #78661A",
"E 	c #00022D",
"F 	c #282D3D",
"G 	c #58491E",
"H 	c #E1BC0A",
"I 	c #F6CE05",
"J 	c #E8C309",
"K 	c #6C5B1A",
"L 	c #383D4A",
"M 	c #282624",
"N 	c #D0AF0E",
"O 	c #F4CD05",
"P 	c #F4CD03",
"Q 	c #F4CC04",
"R 	c #F3CC05",
"S 	c #DCB80C",
"T 	c #403822",
"U 	c #484951",
"V 	c #011732",
"W 	c #A38916",
"X 	c #F6CE04",
"Y 	c #C0A213",
"Z 	c #967D1A",
"` 	c #EEC706",
" .	c #F3CB05",
"..	c #A28819",
"+.	c #B29615",
"@.	c #BFA114",
"#.	c #957E18",
"$.	c #EFC707",
"%.	c #A18818",
"&.	c #B29614",
"*.	c #F5CD05",
"=.	c #B59810",
"-.	c #0A1A34",
";.	c #4F4220",
">.	c #E6C008",
",.	c #D0AE11",
"'.	c #1E1D1F",
").	c #8A741A",
"!.	c #977F1A",
"~.	c #000021",
"{.	c #C3A413",
"].	c #D0AE10",
"^.	c #1B1D20",
"/.	c #8A741B",
"(.	c #C4A512",
"_.	c #F6CD04",
":.	c #EDC706",
"<.	c #66561B",
"[.	c #373B49",
"}.	c #051C38",
"|.	c #A58914",
"1.	c #F2CA04",
"2.	c #F8D002",
"3.	c #CCAB13",
"4.	c #000022",
"5.	c #BEA015",
"6.	c #CCAB10",
"7.	c #BEA013",
"8.	c #F9D002",
"9.	c #B79A0D",
"0.	c #1A273C",
"a.	c #302D2E",
"b.	c #D8B509",
"c.	c #EAC409",
"d.	c #3D3620",
"e.	c #473F1F",
"f.	c #79651D",
"g.	c #E5C009",
"h.	c #EAC408",
"i.	c #89731B",
"j.	c #3E3620",
"k.	c #483E1F",
"l.	c #78661C",
"m.	c #E4C00A",
"n.	c #E3BD08",
"o.	c #443A26",
"p.	c #404450",
"q.	c #65551E",
"r.	c #EEC806",
"s.	c #B19517",
"t.	c #2B2621",
"u.	c #D4B20F",
"v.	c #DDBA0D",
"w.	c #9D8519",
"x.	c #F5CE04",
"y.	c #B29416",
"z.	c #2B2720",
"A.	c #DEB90C",
"B.	c #493D1F",
"C.	c #9E8419",
"D.	c #7C6819",
"E.	c #373D4D",
"F.	c #333A4B",
"G.	c #8E7616",
"H.	c #E7C109",
"I.	c #E1BD0B",
"J.	c #E4BF0A",
"K.	c #E3BF0A",
"L.	c #E6C109",
"M.	c #E1BD0A",
"N.	c #E4BF09",
"O.	c #A28813",
"P.	c #0D213C",
"Q.	c #001435",
"R.	c #A58B13",
"S.	c #F3CC03",
"T.	c #BA9B03",
"U.	c #323946",
"V.	c #4A5159",
"W.	c #B29400",
"X.	c #C4A40F",
"Y.	c #0C1A2E",
"Z.	c #4A5259",
"`.	c #C4A50E",
" +	c #0B1731",
".+	c #001235",
"++	c #BB9D04",
"@+	c #2F3648",
"#+	c #2B3349",
"$+	c #907817",
"%+	c #A58A13",
"&+	c #001939",
"*+	c #353A4A",
"=+	c #EFC806",
"-+	c #F4CC05",
";+	c #F6CD03",
">+	c #F2CA05",
",+	c #7F6B19",
"'+	c #2C3346",
")+	c #312D2A",
"!+	c #DAB70A",
"~+	c #E5C00A",
"{+	c #D0AF0F",
"]+	c #D4B10E",
"^+	c #D2B00F",
"/+	c #E7C208",
"(+	c #EAC308",
"_+	c #E1BD0C",
":+	c #E5BF08",
"<+	c #473E24",
"[+	c #17233C",
"}+	c #AA8E11",
"|+	c #B29715",
"1+	c #B99C15",
"2+	c #F8CF02",
"3+	c #C7A811",
"4+	c #53481F",
"5+	c #010A20",
"6+	c #061020",
"7+	c #453C1F",
"8+	c #BE9F12",
"9+	c #C3A412",
"0+	c #4D421F",
"a+	c #000020",
"b+	c #9F8819",
"c+	c #BB9D0F",
"d+	c #061833",
"e+	c #474852",
"f+	c #564A20",
"g+	c #E9C308",
"h+	c #EDC606",
"i+	c #DCB90E",
"j+	c #A48A18",
"k+	c #806B1C",
"l+	c #B09315",
"m+	c #8D761B",
"n+	c #917A1A",
"o+	c #DAB60D",
"p+	c #DCB90C",
"q+	c #9E8518",
"r+	c #836F1C",
"s+	c #B09416",
"t+	c #977F19",
"u+	c #D9B70F",
"v+	c #EBC508",
"w+	c #F3CB06",
"x+	c #383C47",
"y+	c #00032D",
"z+	c #AA8F15",
"A+	c #F2CC04",
"B+	c #CDAC11",
"C+	c #7E6B1C",
"D+	c #584B1E",
"E+	c #74621D",
"F+	c #C0A313",
"G+	c #C8AA12",
"H+	c #7B681C",
"I+	c #75651D",
"J+	c #C5A513",
"K+	c #BC9D12",
"L+	c #000A2A",
"M+	c #332E23",
"N+	c #D6B40D",
"O+	c #F2CB03",
"P+	c #E0BC0B",
"Q+	c #493F1F",
"R+	c #4A4951",
"S+	c #383B48",
"T+	c #62541E",
"U+	c #E5C108",
"V+	c #ECC507",
"W+	c #776317",
"X+	c #182238",
"Y+	c #72601A",
"Z+	c #847014",
"`+	c #1B263B",
" @	c #001632",
".@	c #66561D",
"+@	c #D9B50B",
"@@	c #F8CF04",
"#@	c #756212",
"$@	c #2D3242",
"%@	c #2E3544",
"&@	c #3A3323",
"*@	c #B09310",
"=@	c #EBC507",
"-@	c #F7CF02",
";@	c #EEC807",
">@	c #BB9C11",
",@	c #493F21",
"'@	c #2C3243",
")@	c #54545B",
"!@	c #16213A",
"~@	c #5F501D",
"{@	c #B39610",
"]@	c #DFBC08",
"^@	c #F2CA06",
"/@	c #E3BF08",
"(@	c #B99C0F",
"_@	c #6B5A1C",
":@	c #00072A",
"<@	c #494A50",
"[@	c #40424E",
"}@	c #001835",
"|@	c #3D3628",
"1@	c #77641C",
"2@	c #9E8415",
"3@	c #B69900",
"4@	c #C0A10A",
"5@	c #C1A20B",
"6@	c #B89A01",
"7@	c #A18813",
"8@	c #7C681A",
"9@	c #453C25",
"0@	c #0F1D36",
"a@	c #292C3E",
"b@	c #1D293E",
"c@	c #17263F",
"d@	c #3B404E",
"e@	c #151F36",
"f@	c #131D35",
"g@	c #353B4A",
"h@	c #0C203C",
"i@	c #313949",
"                        . + @ # $ % & *                         ",
"                    = - ; > , ' ) ! ~ { ] ^ /                   ",
"                ( _ : < [ } | | 1 1 2 3 4 5 6 7 8               ",
"            9 0 a b c d e f f f f f f g h i j k l m             ",
"          n o p q r f f f f f f f f f f f f s t u v w           ",
"        x y z A f f f f f f f f f f f f f f f B q C D E         ",
"      F G H q f f f f f f f f f f f f f f f f f f I J K L       ",
"      M N c g O e e P e B f f f f f f B e Q e e P R t S T U     ",
"    V W X X Y Z `  ...+.d f f f f f f h @.#.$. .%.&.*.t =.-.    ",
"    ;.>.Q *.,.'.).!.~.{.h f f f f f f h ].^./.!.~.(._.Q :.<.[.  ",
"  }.|.q f 1.2.3.4.4.5.2.f f f f f f f f 2.6.4.~.7.8.B f c 9.0.  ",
"  a.b.h f R c./.d.e.f.g.s f f f f f f e h.i.j.k.l.m.Q f P n.o.  ",
"p.q.r.e f q s.t.u.v.k.w.x.f f f f f f q y.z.u.A.B.C.2 f f f D.E.",
"F.G.h f f e H.I.h h J.K.R f f f f f f e L.M.d d N.N.g f f i O.P.",
"Q.R.| f f f S.P f f P s f f f f f f f f S.P f f P s f f f X T.U.",
"V.W.1 f f f f f f f f f f f f f f f f f f f f f f f f f f q X.Y.",
"Z.W.1 f f f f f f f f f f f f f f f f f f f f f f f f f f | `. +",
".+: q B f f f f f f f f f f f f f f f f f f f f f f f f f q ++@+",
"#+$+*.g f f f f f f f f f f f f f f f f f f f f f f f f f i %+&+",
"*+; =+g f B -+q Q f f f f f Q q ;+Q >+f f f f Q q Q B f  .g ,+'+",
"  )+!+h f R ~+{+H.X e f f X j ]+^+/+;+f f f q (+^+_+R f P :+<+  ",
"  [+}+i f q |+~.j.1+e 2+d 3+4+5+6+7+8+Q c d 9+0+a+b+X f c c+d+  ",
"  e+f+g+s f h+i+j+a+k+l+m+a+n+o+p+q+~.r+s+i.~.t+u+v+w+e =+{ x+  ",
"    y+z+i f A+h h B+C+D+E+F+R q 2 *.G+H+D+I+J+s q e f i K+L+    ",
"      M+N+q f f O+;+-+[  .X  .f f  .X  .r.B q f f f 2 P+Q+R+    ",
"      S+T+U+2 B f f f e g f f f f f f f e f f f f d V+W+X+      ",
"        -.Y+L.q f f f f f f f f f f f f f f f f q v+Z+`+        ",
"           @.@+@t Q f f f f f f f f f f f f e @@P+#@$@          ",
"            %@&@*@=@c P g f B f f f f f P -@;@>@,@'@            ",
"              )@!@~@{@]@^@X q | | i q B /@(@_@:@<@              ",
"                  [@}@|@1@2@3@4@5@6@7@8@9@0@a@                  ",
"                        b@c@d@e@f@g@h@i@                        "};
